HIERARCHY
ROOT Hips
{
 OFFSET 0.000000 0.000000 0.000000
 CHANNELS 6 Xposition Yposition Zposition Yrotation Xrotation Zrotation
 JOINT Chest
 {
  OFFSET 0.000000 9.585900 0.002600
  CHANNELS 3 Yrotation Xrotation Zrotation
  JOINT Chest2
  {
   OFFSET 0.000000 9.601200 -0.005300
   CHANNELS 3 Yrotation Xrotation Zrotation
   JOINT Chest3
   {
    OFFSET 0.000000 9.561800 0.000000
    CHANNELS 3 Yrotation Xrotation Zrotation
    JOINT Chest4
    {
     OFFSET 0.000000 9.552100 0.000000
     CHANNELS 3 Yrotation Xrotation Zrotation
     JOINT Neck
     {
      OFFSET 0.000000 14.453000 0.000000
      CHANNELS 3 Yrotation Xrotation Zrotation
      JOINT Head
      {
       OFFSET 0.000000 8.936500 -0.011300
       CHANNELS 3 Yrotation Xrotation Zrotation
       End Site
       {
        OFFSET 0.000000 17.073600 -0.006000
       }
      }
     }
     JOINT RightCollar
     {
      OFFSET -2.921100 9.558500 0.000000
      CHANNELS 3 Yrotation Xrotation Zrotation
      JOINT RightShoulder
      {
       OFFSET -13.519700 0.000000 0.000000
       CHANNELS 3 Yrotation Xrotation Zrotation
       JOINT RightElbow
       {
        OFFSET 0.000000 -29.696600 0.000000
        CHANNELS 3 Yrotation Xrotation Zrotation
        JOINT RightWrist
        {
         OFFSET 0.000000 -24.004700 0.000000
         CHANNELS 3 Yrotation Xrotation Zrotation
         End Site
         {
          OFFSET 0.000000 -17.728500 0.000000
         }
        }
       }
      }
     }
     JOINT LeftCollar
     {
      OFFSET 2.921100 9.558500 0.000000
      CHANNELS 3 Yrotation Xrotation Zrotation
      JOINT LeftShoulder
      {
       OFFSET 13.519700 0.000000 0.000000
       CHANNELS 3 Yrotation Xrotation Zrotation
       JOINT LeftElbow
       {
        OFFSET 0.000000 -29.696600 0.000000
        CHANNELS 3 Yrotation Xrotation Zrotation
        JOINT LeftWrist
        {
         OFFSET 0.000000 -24.004700 0.000000
         CHANNELS 3 Yrotation Xrotation Zrotation
         End Site
         {
          OFFSET 0.000000 -17.728500 0.000000
         }
        }
       }
      }
     }
    }
   }
  }
 }
 JOINT RightHip
 {
  OFFSET -7.771700 -0.012900 -0.001300
  CHANNELS 3 Yrotation Xrotation Zrotation
  JOINT RightKnee
  {
   OFFSET 0.000000 -40.869800 0.001200
   CHANNELS 3 Yrotation Xrotation Zrotation
   JOINT RightAnkle
   {
    OFFSET 0.000000 -39.717900 0.002100
    CHANNELS 3 Yrotation Xrotation Zrotation
    JOINT RightToe
    {
     OFFSET 0.000000 -4.965400 11.033500
     CHANNELS 3 Yrotation Xrotation Zrotation
     End Site
     {
      OFFSET 0.000000 -1.423100 5.872300
     }
    }
   }
  }
 }
 JOINT LeftHip
 {
  OFFSET 7.771700 -0.012900 -0.001300
  CHANNELS 3 Yrotation Xrotation Zrotation
  JOINT LeftKnee
  {
   OFFSET 0.000000 -40.869800 0.001200
   CHANNELS 3 Yrotation Xrotation Zrotation
   JOINT LeftAnkle
   {
    OFFSET 0.000000 -39.717900 0.002100
    CHANNELS 3 Yrotation Xrotation Zrotation
    JOINT LeftToe
    {
     OFFSET 0.000000 -4.965400 11.033500
     CHANNELS 3 Yrotation Xrotation Zrotation
     End Site
     {
      OFFSET 0.000000 -1.423100 5.872300
     }
    }
   }
  }
 }
}
MOTION
Frames: 15
Frame Time: 0.008333
0.000000 85.388000 0.000000 0.000000 -5.767877 0.000000 0.000000 11.653817 0.000000 0.000000 -5.885947 0.000000 0.000000 -0.000000 0.000000 0.000000 -0.000000 0.000000 0.000000 12.528835 0.000000 0.000000 0.711642 0.000000 0.000000 -0.000000 0.000000 0.000000 0.000000 -90.000000 0.000000 -2.309062 0.000000 0.000000 2.309062 0.000000 0.000000 -0.000000 0.000000 0.000000 -0.000000 90.000000 0.000000 -2.309062 0.000000 0.000000 2.309062 0.000000 0.000000 8.520406 0.000000 0.000000 1.905762 0.000000 -0.000000 -4.658285 0.000000 0.000000 -0.000000 0.000000 0.000000 8.520406 0.000000 0.000000 1.905762 0.000000 -0.000000 -4.658285 0.000000 0.000000 -0.000000 0.000000
-224.912751 57.337599 136.175277 -179.633463 -30.807386 -2.037600 0.426533 21.032207 2.226707 -0.018668 2.746392 0.326377 0.011180 4.495126 0.552684 0.312321 17.906907 2.259724 -0.365323 12.055427 -1.382903 -0.115811 -13.402451 -2.486239 1.767844 -1.240076 -0.341286 8.902757 -21.768237 -18.849164 167.962007 -72.836672 -145.717018 8.946798 -13.861579 -43.685960 -7.245033 -4.971369 -2.612811 3.142695 -12.898847 1.670340 -28.187357 -73.970443 -3.928115 -9.858725 0.350793 3.325569 2.953072 -45.430647 -4.482507 -12.600095 67.185593 -17.195640 6.776837 25.540675 5.463783 -0.544581 -16.448438 5.018034 -8.304836 -42.920701 2.041500 29.673795 70.137802 31.099332 -15.383057 2.812734 -4.484014 0.173569 0.438371 0.105119
-224.920470 57.337251 136.178929 -179.641949 -30.807426 -2.017763 0.396373 21.022952 2.183328 0.003303 2.755399 0.337809 -0.036400 4.494166 0.536415 0.300375 17.918766 2.250249 -0.391285 11.979312 -1.324037 -0.188793 -13.544967 -2.363863 1.855246 -1.303760 -0.345555 9.177166 -22.388608 -19.155319 173.132029 -72.871346 -150.520022 8.269415 -13.532853 -44.205077 -7.404499 -5.069226 -2.760354 2.518255 -13.642185 1.632139 -34.832671 -73.058524 3.033441 -10.033164 0.459103 3.381118 2.979008 -45.426032 -4.506598 -12.598752 67.178422 -17.194193 6.744844 25.527386 5.464634 -0.515139 -16.429929 5.005807 -8.262658 -42.927826 2.021260 29.676654 70.140591 31.067029 -15.343617 2.831358 -4.425672 0.128881 0.425510 0.082494
-224.924436 57.337576 136.181974 -179.648627 -30.812796 -2.024163 0.313934 20.999642 2.132441 0.048411 2.777651 0.351070 -0.052426 4.493463 0.533153 0.271140 17.927393 2.234129 -0.415161 11.911340 -1.265120 -0.258059 -13.672205 -2.241958 1.948602 -1.363668 -0.354668 9.454339 -23.022206 -19.466817 179.035268 -72.795753 -156.021876 7.535527 -13.234014 -44.845929 -7.547596 -5.151089 -2.906586 1.950597 -14.366505 1.593031 -40.448226 -71.950922 8.906403 -10.203421 0.541324 3.454106 2.987416 -45.412341 -4.503665 -12.633627 67.160998 -17.213754 6.740743 25.518632 5.460189 -0.503781 -16.416093 5.001815 -8.244465 -42.926597 2.028663 29.668060 70.147410 31.052300 -15.336249 2.834735 -4.400348 0.112242 0.424548 0.075524
-224.926652 57.339558 136.182350 -179.649799 -30.835043 -2.043927 0.267470 21.002452 2.119289 -0.009267 2.763153 0.332764 -0.006756 4.510561 0.543488 0.236688 17.931109 2.216033 -0.438419 11.852596 -1.206537 -0.326359 -13.782111 -2.120755 2.049302 -1.416794 -0.367328 9.738483 -23.665516 -19.779638 -174.821716 -72.523235 -161.765017 6.799151 -12.953829 -45.597517 -7.683415 -5.215720 -3.050224 1.442991 -15.067144 1.553333 -44.836917 -70.715887 13.494160 -10.367333 0.582383 3.539128 2.971849 -45.378157 -4.481651 -12.627879 67.146323 -17.198870 6.741152 25.504798 5.461367 -0.518170 -16.403425 5.001357 -8.243221 -42.906769 2.050667 29.654721 70.155826 31.039250 -15.343258 2.839046 -4.394753 0.114404 0.413240 0.074306
-224.927737 57.341451 136.182753 -179.652977 -30.853264 -2.066535 0.219441 20.998045 2.106019 -0.014783 2.762136 0.330431 -0.015794 4.509127 0.539485 0.197790 17.930044 2.195918 -0.460894 11.802481 -1.148225 -0.393372 -13.876004 -2.000216 2.158909 -1.463511 -0.381490 10.038401 -24.321159 -20.080450 -169.077273 -72.020878 -167.152240 6.132986 -12.676850 -46.431081 -7.815981 -5.266300 -3.187765 0.993890 -15.742765 1.511976 -48.035973 -69.434478 16.841757 -10.514679 0.601475 3.631845 2.943868 -45.350255 -4.446728 -12.613888 67.133979 -17.182434 6.743447 25.492034 5.460857 -0.518442 -16.390759 4.997882 -8.246498 -42.891255 2.083827 29.639159 70.166458 31.022563 -15.359387 2.844231 -4.393030 0.119086 0.399730 0.075699
-224.926827 57.344341 136.181253 -179.665730 -30.879520 -2.090991 0.175839 20.999660 2.093600 -0.020742 2.759392 0.327637 0.016918 4.523297 0.548916 0.109711 17.905660 2.161650 -0.481738 11.759696 -1.090752 -0.457140 -13.956241 -1.881819 2.276278 -1.501615 -0.397819 10.373846 -25.000639 -20.352124 -164.338931 -71.319584 -171.614429 5.576183 -12.405074 -47.289687 -7.939935 -5.304553 -3.314966 0.596192 -16.393547 1.466104 -50.231017 -68.157052 19.144473 -10.625598 0.611283 3.736113 2.908982 -45.312807 -4.395268 -12.608277 67.117735 -17.174795 6.742517 25.476017 5.457353 -0.516909 -16.375915 4.991148 -8.243224 -42.866525 2.125532 29.641271 70.178600 31.018060 -15.371485 2.847856 -4.378363 0.114783 0.379236 0.068209
-224.921071 57.346964 136.180086 -179.687907 -30.897504 -2.132796 0.142073 20.990965 2.100737 -0.027137 2.755117 0.324336 -0.013709 4.508212 0.536676 0.085656 17.904676 2.141200 -0.501511 11.722814 -1.035881 -0.517952 -14.025298 -1.768680 2.394784 -1.527149 -0.420294 10.763768 -25.716849 -20.581701 -161.008156 -70.492680 -174.774426 5.143768 -12.142699 -48.154933 -8.054865 -5.331828 -3.429762 0.238316 -17.016088 1.413257 -51.636385 -66.908723 20.630366 -10.691518 0.614303 3.850435 2.824788 -45.283439 -4.286198 -12.577748 67.099584 -17.171028 6.776422 25.419268 5.485349 -0.529474 -16.327871 4.966067 -8.246866 -42.845970 2.192824 29.683296 70.183782 31.048107 -15.359323 2.874776 -4.334098 0.071979 0.347370 0.048060
-224.919317 57.349160 136.178907 -179.694976 -30.907616 -2.150923 0.080340 20.972526 2.072983 -0.033892 2.749702 0.320686 -0.047332 4.489865 0.523157 0.061056 17.902169 2.119383 -0.522141 11.691780 -0.984380 -0.579132 -14.083422 -1.661404 2.516616 -1.521122 -0.437941 11.218338 -26.492132 -20.781018 -159.186254 -69.615548 -176.541904 4.851866 -11.890125 -49.019974 -8.163212 -5.351452 -3.533958 -0.092792 -17.604453 1.353579 -52.462860 -65.705609 21.525003 -10.720740 0.608104 3.974047 2.763702 -45.266406 -4.220305 -12.558289 67.086175 -17.173179 6.759005 25.413716 5.464071 -0.526789 -16.322729 4.973788 -8.245320 -42.834810 2.216632 29.697828 70.188819 31.063669 -15.362439 2.865514 -4.323740 0.064838 0.348933 0.044117
-224.917063 57.352078 136.176012 -179.709778 -30.922981 -2.160537 0.061707 20.972533 2.065634 -0.078501 2.727832 0.303822 -0.058903 4.480164 0.516838 0.010603 17.887256 2.090396 -0.544202 11.667087 -0.935880 -0.641923 -14.129739 -1.559151 2.615016 -1.532282 -0.465000 11.752848 -27.291273 -20.925790 -158.703846 -68.731393 -177.086173 4.692219 -11.663097 -49.815929 -8.265490 -5.368530 -3.631174 -0.400801 -18.155779 1.289649 -52.892123 -64.558887 22.017758 -10.731328 0.590737 4.108865 2.711824 -45.245422 -4.154856 -12.558084 67.076142 -17.201307 6.743465 25.396944 5.453522 -0.521739 -16.311614 4.974627 -8.229772 -42.819177 2.230560 29.706023 70.196698 31.077377 -15.362168 2.859901 -4.315858 0.056704 0.340835 0.037260
-224.912648 57.354413 136.173679 -179.729925 -30.928263 -2.173032 -0.015794 20.941205 2.020642 -0.067456 2.729216 0.306180 -0.070761 4.469338 0.510033 -0.041412 17.870435 2.059466 -0.566537 11.649111 -0.890062 -0.704178 -14.163374 -1.461922 2.692330 -1.563643 -0.501408 12.357294 -28.118481 -21.027004 -159.269609 -67.846488 -176.688404 4.633887 -11.468824 -50.452233 -8.364151 -5.387708 -3.721009 -0.672701 -18.672253 1.221273 -53.021649 -63.470510 22.205740 -10.751101 0.556498 4.269272 2.665789 -45.235279 -4.089995 -12.543291 67.063546 -17.203221 6.727194 25.395333 5.433682 -0.509480 -16.311312 4.976599 -8.195264 -42.812374 2.237812 29.693759 70.202721 31.089250 -15.357667 2.854854 -4.308498 0.053683 0.338542 0.031122
-224.908419 57.355743 136.172261 -179.749467 -30.921267 -2.177855 -0.104890 20.897425 1.964401 -0.055401 2.728522 0.308213 -0.082975 4.457161 0.502630 -0.095469 17.851220 2.026183 -0.588732 11.639600 -0.846528 -0.765230 -14.181184 -1.369118 2.814463 -1.527036 -0.508897 12.984685 -29.048184 -21.163622 -160.623075 -66.958163 -175.598873 4.647070 -11.305023 -50.887976 -8.458933 -5.404970 -3.801475 -0.903325 -19.160350 1.150209 -52.928364 -62.425966 22.157626 -10.791210 0.497068 4.473171 2.614074 -45.237849 -4.025029 -12.528304 67.051010 -17.218571 6.710171 25.383834 5.426995 -0.497189 -16.308796 4.969094 -8.144192 -42.820951 2.218975 29.685743 70.202778 31.119197 -15.331822 2.861480 -4.302875 0.031117 0.330693 0.023641
-224.901768 57.358241 136.168242 -179.780733 -30.927966 -2.184846 -0.163738 20.869873 1.928198 -0.062731 2.719392 0.303531 -0.095079 4.443111 0.494940 -0.149584 17.828605 1.992060 -0.612125 11.640975 -0.804800 -0.827861 -14.178784 -1.279206 2.875450 -1.554474 -0.534360 13.681902 -29.958054 -21.256556 -162.563934 -66.064025 -174.005137 4.722000 -11.190661 -51.148742 -8.549393 -5.412710 -3.873891 -1.103113 -19.627689 1.084780 -52.740093 -61.406917 21.989074 -10.841286 0.421389 4.724609 2.554974 -45.230218 -3.939216 -12.518293 67.041343 -17.244762 6.697659 25.380154 5.417228 -0.483174 -16.307993 4.963811 -8.133913 -42.815763 2.241666 29.714270 70.216085 31.158299 -15.319738 2.857787 -4.300106 0.019653 0.321013 0.016517
-224.894414 57.359882 136.164784 -179.837234 -30.927358 -2.177229 -0.203860 20.829347 1.888846 -0.069503 2.709097 0.298685 -0.106336 4.427119 0.487003 -0.200514 17.802634 1.957869 -0.638759 11.654828 -0.764773 -0.895996 -14.153225 -1.191180 2.939859 -1.584681 -0.542236 14.383600 -30.893354 -21.367137 -164.900438 -65.143776 -172.065986 4.859599 -11.137420 -51.299605 -8.640699 -5.409602 -3.938829 -1.284452 -20.077647 1.032694 -52.597302 -60.398411 21.833862 -10.885684 0.347647 5.025455 2.547511 -45.233446 -3.877867 -12.529377 67.033129 -17.271185 6.685796 25.380862 5.417842 -0.463657 -16.305623 4.946298 -8.113672 -42.818036 2.273413 29.744970 70.228186 31.191173 -15.311990 2.864363 -4.299206 0.013118 0.302572 0.010283
-224.887504 57.361368 136.160583 -179.875660 -30.927652 -2.171023 -0.259497 20.784700 1.843330 -0.053986 2.713672 0.301291 -0.138669 4.393582 0.472166 -0.247701 17.773896 1.923245 -0.670172 11.681145 -0.726645 -0.972516 -14.104481 -1.104748 3.036956 -1.599207 -0.524693 15.041545 -31.864853 -21.512798 -167.427070 -64.170255 -169.948331 5.045679 -11.130806 -51.398102 -8.737639 -5.397320 -3.997332 -1.468331 -20.507756 1.003315 -52.587986 -59.391476 21.790392 -10.910277 0.288140 5.367482 2.555693 -45.234616 -3.847919 -12.556414 67.029447 -17.295227 6.679291 25.379586 5.421447 -0.457171 -16.310241 4.929170 -8.109148 -42.818411 2.298872 29.792348 70.236207 31.236714 -15.311655 2.860857 -4.304744 -0.000253 0.295448 0.007677
